<?xml version="1.0" encoding="UTF-8"?>
<svg width="512px" height="512px" viewBox="0 0 512 512" version="1.1" xmlns="http://www.w3.org/2000/svg" xmlns:xlink="http://www.w3.org/1999/xlink">
    <title>Group-2 2</title>
    <defs>
        <radialGradient cx="-19.2129905%" cy="-2.00675304e-05%" fx="-19.2129905%" fy="-2.00675304e-05%" r="128.299614%" gradientTransform="translate(-0.192130,-0.000000),scale(1.000000,0.920513),rotate(57.857754),translate(0.192130,0.000000)" id="radialGradient-1">
            <stop stop-color="#A1F7D2" offset="0%"></stop>
            <stop stop-color="#6BAC8C" offset="100%"></stop>
        </radialGradient>
        <linearGradient x1="54.6910978%" y1="-33.4556754%" x2="7.80176989%" y2="87.7646232%" id="linearGradient-2">
            <stop stop-color="#FF0000" offset="0%"></stop>
            <stop stop-color="#5A3535" offset="100%"></stop>
        </linearGradient>
        <path d="M0.963886822,76.8209734 C2.02727233,60.2709513 15.1456614,47.6986222 31.5445761,45.1008192 C49.7224025,42.2211029 73.394181,37.8551615 91.6301901,32.3405482 C114.009565,25.5721641 144.571686,12.1219483 163.125844,3.58418948 C173.508398,-1.19472983 185.491602,-1.19472983 195.874156,3.58418948 C214.428315,12.1219483 244.990435,25.5721641 267.36981,32.3405482 C285.605819,37.8551615 309.277598,42.2211029 327.455425,45.1008192 C343.854338,47.6986222 356.972727,60.2709513 358.036113,76.8209734 C362.587998,147.615748 357.653592,333.016797 189.818182,388.363235 C183.202661,390.545588 175.798577,390.545588 169.181818,388.363235 C1.3464085,333.016797 -3.58799737,147.615748 0.963886822,76.8209734 Z" id="path-3"></path>
        <path d="M0.963886822,76.8209734 C2.02727233,60.2709513 15.1456614,47.6986222 31.5445761,45.1008192 C49.7224025,42.2211029 73.394181,37.8551615 91.6301901,32.3405482 C114.009565,25.5721641 144.571686,12.1219483 163.125844,3.58418948 C173.508398,-1.19472983 185.491602,-1.19472983 195.874156,3.58418948 C214.428315,12.1219483 244.990435,25.5721641 267.36981,32.3405482 C285.605819,37.8551615 309.277598,42.2211029 327.455425,45.1008192 C343.854338,47.6986222 356.972727,60.2709513 358.036113,76.8209734 C362.587998,147.615748 357.653592,333.016797 189.818182,388.363235 C183.202661,390.545588 175.798577,390.545588 169.181818,388.363235 C1.3464085,333.016797 -3.58799737,147.615748 0.963886822,76.8209734 Z" id="path-4"></path>
        <linearGradient x1="55.5362387%" y1="-24.460151%" x2="0.199402551%" y2="83.6940482%" id="linearGradient-6">
            <stop stop-color="#FF0000" offset="0%"></stop>
            <stop stop-color="#5A3535" offset="100%"></stop>
        </linearGradient>
        <path d="M0.963886822,76.8209734 C2.02727233,60.2709513 15.1456614,47.6986222 31.5445761,45.1008192 C49.7224025,42.2211029 73.394181,37.8551615 91.6301901,32.3405482 C114.009565,25.5721641 144.571686,12.1219483 163.125844,3.58418948 C173.508398,-1.19472983 185.491602,-1.19472983 195.874156,3.58418948 C214.428315,12.1219483 244.990435,25.5721641 267.36981,32.3405482 C285.605819,37.8551615 309.277598,42.2211029 327.455425,45.1008192 C343.854338,47.6986222 356.972727,60.2709513 358.036113,76.8209734 C362.587998,147.615748 357.653592,333.016797 189.818182,388.363235 C183.202661,390.545588 175.798577,390.545588 169.181818,388.363235 C1.3464085,333.016797 -3.58799737,147.615748 0.963886822,76.8209734 Z" id="path-7"></path>
    </defs>
    <g id="Page-1" stroke="none" stroke-width="1" fill="none" fill-rule="evenodd">
        <g id="logo" transform="translate(0.000000, -61.000000)">
            <g id="Group-2-2" transform="translate(0.000000, 61.000000)">
                <g id="Group-2" transform="translate(76.000000, 61.000000)">
                    <g id="Path" transform="translate(0.000000, 0.000000)" fill-rule="nonzero">
                        <g id="path-1">
                            <use fill="url(#radialGradient-1)" xlink:href="#path-3"></use>
                            <use fill="url(#linearGradient-2)" xlink:href="#path-3"></use>
                        </g>
                    </g>
                    <g id="Rectangle-Clipped" transform="translate(0.000000, 0.000000)">
                        <mask id="mask-5" fill="white">
                            <use xlink:href="#path-4"></use>
                        </mask>
                        <g id="path-3"></g>
                        <rect id="Rectangle" fill="url(#linearGradient-6)" fill-rule="nonzero" mask="url(#mask-5)" x="176.76927" y="-15.4761906" width="488.254564" height="461.190476"></rect>
                    </g>
                    <g id="Path-Clipped" transform="translate(0.000000, 0.000000)">
                        <mask id="mask-8" fill="white">
                            <use xlink:href="#path-7"></use>
                        </mask>
                        <g id="path-6"></g>
                        <path d="M49.8485863,112.919528 C50.5504957,96.3200717 63.6466105,83.6792896 80.0083979,80.7576166 C91.7192636,78.6662881 105.102579,75.8646503 115.870138,72.4888252 C130.190571,68.0005124 149.138405,59.594361 162.624469,53.2770637 C173.305373,48.2727248 185.694627,48.2727248 196.375531,53.2770637 C209.861595,59.594361 228.809429,68.0005124 243.129862,72.4888252 C253.897421,75.8646503 267.280737,78.6662881 278.991602,80.7576166 C295.35339,83.6792896 308.449504,96.3200717 309.151414,112.919528 C311.560434,169.88039 303.610417,297.60117 190.062062,338.639473 C183.285606,341.088429 175.714395,341.088429 168.937938,338.639473 C55.3895836,297.60117 47.4395648,169.88039 49.8485863,112.919528 Z" id="Path" stroke="#FFFFFF" stroke-width="2" mask="url(#mask-8)"></path>
                    </g>
                </g>
                <rect id="Rectangle" x="0" y="0" width="512" height="512"></rect>
            </g>
        </g>
    </g>
</svg>